<?xml version="1.0" standalone="no"?>
<!DOCTYPE svg PUBLIC "-//W3C//DTD SVG 20010904//EN"
 "http://www.w3.org/TR/2001/REC-SVG-20010904/DTD/svg10.dtd">
<svg version="1.0" xmlns="http://www.w3.org/2000/svg"
 width="330.000000pt" height="297.000000pt" viewBox="0 0 330.000000 297.000000"
 preserveAspectRatio="xMidYMid meet">

<g transform="translate(0.000000,297.000000) scale(0.100000,-0.100000)"
fill="#000000" stroke="none">
<path d="M1515 2679 c-121 -6 -239 -26 -299 -49 -14 -5 -61 -18 -103 -29 -130
-32 -279 -110 -375 -196 -96 -86 -88 -78 -176 -175 -57 -64 -95 -115 -147
-201 -6 -9 -18 -28 -29 -43 -31 -44 -115 -313 -132 -421 -19 -125 -23 -345 -7
-495 12 -124 22 -152 142 -403 45 -94 64 -120 149 -208 148 -155 323 -268 487
-314 33 -9 98 -30 145 -45 185 -62 180 -61 398 -63 220 -2 310 9 452 55 130
42 297 139 408 237 77 68 188 200 215 255 11 23 30 55 43 71 24 32 132 295
157 385 26 93 47 220 42 258 -2 21 -7 91 -10 157 -7 135 -14 176 -50 271 -14
36 -25 78 -25 93 -1 65 -165 361 -251 450 -108 112 -468 336 -596 370 -66 18
-256 51 -283 49 -14 -1 -83 -5 -155 -9z m201 -775 c4 -20 4 -94 0 -163 l-7
-126 23 32 c23 32 57 46 78 33 6 -4 15 -46 20 -95 5 -49 14 -91 19 -94 19 -12
-6 -33 -35 -29 -31 3 -31 4 -49 121 -3 21 -10 35 -14 33 -5 -3 -16 -45 -26
-93 -10 -49 -21 -92 -25 -96 -4 -4 -19 -3 -35 3 -27 10 -27 11 -21 83 3 39 11
148 16 242 10 159 16 184 42 185 4 0 10 -16 14 -36z m-527 -20 c10 -10 -12
-17 -56 -18 l-48 -1 -7 -45 c-4 -25 -10 -127 -14 -228 l-7 -183 -31 3 -31 3 2
90 c1 50 2 114 2 143 0 29 3 58 7 64 5 8 8 97 5 122 -1 3 -14 1 -31 -4 -44
-13 -37 6 13 32 58 31 175 44 196 22z m417 -159 c11 -28 9 -78 -4 -82 -6 -3
-16 6 -21 19 -9 23 -9 23 -21 -7 -17 -43 -29 -165 -16 -172 5 -3 20 7 33 23
26 32 31 18 8 -25 -17 -33 -32 -41 -67 -34 -37 7 -52 49 -45 123 8 72 33 136
60 155 28 19 66 19 73 0z m476 -14 c11 -18 14 -18 41 -5 46 25 53 10 8 -19
-22 -15 -43 -38 -47 -52 -6 -26 1 -123 12 -162 5 -19 2 -23 -14 -23 -38 0 -52
11 -52 42 0 26 -2 29 -15 18 -8 -7 -15 -18 -15 -26 0 -39 -83 -49 -115 -14
-21 23 -24 119 -7 170 12 36 63 77 82 65 6 -3 10 -26 10 -50 0 -32 -7 -51 -25
-73 -24 -29 -31 -64 -19 -96 10 -26 30 -19 67 24 32 38 34 45 36 117 2 95 24
130 53 84z m-659 -9 c29 -7 29 -7 32 -97 1 -50 6 -105 10 -122 7 -29 5 -33
-13 -33 -26 0 -42 20 -49 64 l-6 35 -27 -29 c-31 -33 -51 -37 -74 -15 -14 14
-17 13 -31 -14 -20 -40 -42 -50 -82 -39 -40 10 -53 34 -55 96 -2 72 16 124 52
145 39 24 50 15 50 -38 0 -32 -7 -51 -25 -73 -24 -29 -31 -64 -19 -96 9 -24
27 -19 61 17 23 24 32 45 37 86 11 89 47 138 91 125 11 -3 33 -9 48 -12z m-22
-403 c11 -5 17 -15 13 -20 -3 -6 -8 -112 -10 -237 -3 -189 -6 -229 -18 -237
-11 -6 -19 -6 -27 2 -24 24 -38 175 -19 218 6 13 9 -9 9 -67 1 -49 4 -88 9
-88 4 0 8 45 9 100 2 91 -6 121 -21 88 -3 -7 -3 41 0 107 5 104 14 145 31 145
2 0 13 -5 24 -11z m-184 -57 c20 -27 56 -148 69 -229 3 -21 8 -41 10 -45 2 -3
7 -33 10 -65 4 -32 7 -62 8 -67 1 -13 -26 -18 -42 -7 -8 4 -16 28 -18 52 -10
89 -11 91 -47 84 -48 -11 -56 -21 -63 -87 -7 -59 -26 -94 -46 -82 -20 13 36
384 67 445 19 36 26 36 52 1z m572 -56 c9 -11 8 -22 -6 -50 -9 -20 -20 -36
-24 -36 -10 0 -22 77 -14 90 9 14 30 13 44 -4z m-301 -58 c7 -7 12 -31 12 -55
0 -24 3 -43 8 -43 4 0 16 19 27 41 34 71 79 64 81 -12 4 -114 5 -126 14 -99 4
14 8 38 9 53 1 16 13 49 28 74 24 42 27 44 34 24 6 -14 2 -37 -11 -67 -11 -25
-20 -52 -20 -60 0 -9 -3 -13 -8 -11 -4 3 -8 -14 -9 -36 -1 -23 -8 -69 -15
-102 -12 -56 -15 -60 -38 -57 -14 2 -26 5 -28 7 -5 5 -11 106 -12 195 0 82 -1
84 -15 56 -8 -15 -13 -31 -11 -35 3 -4 0 -28 -6 -54 -7 -35 -14 -47 -28 -47
-40 0 -50 26 -50 129 0 110 7 130 38 99z m407 -7 c3 -6 2 -35 -3 -65 -9 -57 0
-78 13 -28 9 37 33 62 60 62 31 0 41 -16 54 -84 16 -87 14 -145 -5 -153 -25
-9 -34 9 -47 100 -18 122 -30 129 -48 31 -6 -32 -13 -66 -16 -74 -4 -8 -5 -23
-4 -33 2 -15 -3 -18 -30 -15 -30 3 -34 7 -42 43 -8 39 -2 180 9 210 7 16 49
21 59 6z m-111 -68 c9 -39 -1 -174 -12 -185 -6 -6 -18 -8 -28 -6 -17 3 -19 12
-15 88 2 47 7 95 12 107 12 32 36 29 43 -4z"/>
<path d="M1683 1745 c0 -33 2 -45 4 -27 2 18 2 45 0 60 -2 15 -4 0 -4 -33z"/>
<path d="M1672 1620 c0 -14 2 -19 5 -12 2 6 2 18 0 25 -3 6 -5 1 -5 -13z"/>
<path d="M1670 1565 c0 -14 2 -25 4 -25 2 0 6 11 8 25 3 14 1 25 -3 25 -5 0
-9 -11 -9 -25z"/>
<path d="M1805 1500 c-3 -5 -1 -10 4 -10 6 0 11 5 11 10 0 6 -2 10 -4 10 -3 0
-8 -4 -11 -10z"/>
<path d="M1020 1619 c0 -34 3 -60 6 -56 11 11 14 106 4 112 -6 4 -10 -17 -10
-56z"/>
<path d="M1020 1550 c-6 -18 -6 -51 0 -61 11 -16 18 23 9 46 -4 11 -8 18 -9
15z"/>
<path d="M1933 1650 c-6 -14 -8 -29 -5 -34 7 -13 24 22 19 42 -3 14 -6 12 -14
-8z"/>
<path d="M1350 1669 c-7 -11 -14 -45 -17 -75 -9 -83 17 -68 51 31 11 33 11 42
0 53 -18 16 -21 15 -34 -9z"/>
<path d="M1193 1650 c-6 -14 -8 -29 -5 -34 7 -13 24 22 19 42 -3 14 -6 12 -14
-8z"/>
<path d="M1410 1536 c0 -8 5 -18 10 -21 6 -3 10 1 10 9 0 8 -4 18 -10 21 -5 3
-10 -1 -10 -9z"/>
<path d="M1360 1099 c0 -5 5 -7 10 -4 6 3 10 8 10 11 0 2 -4 4 -10 4 -5 0 -10
-5 -10 -11z"/>
<path d="M1172 1063 c-7 -42 -10 -78 -8 -81 3 -2 19 -1 36 3 31 7 32 9 26 44
-9 57 -26 111 -35 111 -4 0 -13 -34 -19 -77z"/>
<path d="M1582 970 c0 -14 2 -19 5 -12 2 6 2 18 0 25 -3 6 -5 1 -5 -13z"/>
<path d="M1592 870 c0 -14 2 -19 5 -12 2 6 2 18 0 25 -3 6 -5 1 -5 -13z"/>
</g>
</svg>
